<svg xmlns="http://www.w3.org/2000/svg" viewBox="0 0 512 512" role="img" aria-label="House Of Dev logo"><rect width="512" height="512" rx="72" fill="#F4F0E6"/><path d="M284 449Z M174 418 L190 418Z M356 405Z M198 398 L214 398 L209 402Z M149 398 L166 398 L161 402Z M206 377 L213 392 L199 391Z M158 377 L165 392 L150 391Z M388 375Z M181 363 L183 368Z M317 356 L319 363Z M313 336 L335 337 L333 383 L312 382Z M263 337 L292 336 L293 360 L264 361Z M260 332 L260 366 L297 365 L296 332Z M120 313 L117 339 L124 347 L134 347 L138 333 L130 329 L132 343 L122 339Z M341 307 L361 306 L353 316Z M318 309 L319 305 L337 306 L328 316Z M294 308 L313 307 L304 316Z M269 306 L289 307 L278 316Z M245 306 L263 305 L264 309 L253 316Z M221 307 L239 305 L240 309 L230 316Z M197 307 L215 305 L216 309 L206 316Z M233 274 L240 300 L223 301Z M321 266 L334 265 L358 300 L341 301Z M300 266 L315 265 L335 300 L317 301Z M280 265 L296 267 L310 301 L292 300Z M259 265 L275 267 L287 301 L268 300Z M238 265 L254 266 L263 301 L244 300Z M230 265 L218 300 L201 301 L222 269Z M123 265 L123 269Z M415 200Z M396 196 L413 205 L418 226 L405 240 L394 235 L393 227 L389 229 L393 241 L410 244 L401 255 L395 277 L381 248 L380 227 L388 215 L398 214 L405 229 L408 218 L401 210 L391 209 L379 218 L375 229 L379 256 L407 318 L406 344 L390 375 L393 315 L367 265 L361 236 L372 208Z M156 192Z M310 184Z M188 172Z M399 165 L390 173 L398 184 L407 175Z M378 156 L384 153 L386 158Z M230 152 L232 159Z M386 149 L374 153 L377 166 L362 192 L330 219 L299 232 L231 246 L200 262 L186 277 L179 294 L179 313 L187 331 L159 315 L150 289 L139 279 L139 273 L147 271 L157 299 L162 303 L171 300 L173 294 L167 286 L160 286 L167 292 L166 298 L157 288 L160 259 L153 251 L153 242 L163 242 L163 271 L175 279 L181 268 L171 260 L177 270 L172 275 L167 262 L180 240 L175 224 L178 218 L188 222 L181 254 L190 260 L196 257 L198 246 L192 240 L194 252 L188 255 L186 243 L206 222 L203 206 L208 200 L215 203 L216 210 L204 237 L214 245 L222 239 L221 228 L215 227 L218 237 L214 241 L209 231 L216 221 L235 212 L235 193 L243 190 L247 194 L232 224 L234 233 L243 236 L250 230 L250 219 L245 217 L247 226 L242 232 L236 228 L245 212 L265 205 L265 185 L274 181 L278 190 L262 221 L265 227 L276 229 L282 223 L281 210 L276 209 L274 225 L267 222 L268 214 L277 203 L297 194 L294 176 L299 170 L308 177 L294 213 L299 219 L309 219 L315 211 L312 198 L307 198 L307 215 L300 214 L298 206 L304 195 L324 180 L321 159 L326 153 L333 156 L334 163 L323 194 L330 202 L344 196 L345 187 L338 176 L339 195 L331 198 L327 193 L338 156 L330 149 L319 153 L321 175 L313 184 L308 167 L294 167 L290 173 L293 192 L287 197 L280 197 L280 180 L268 177 L260 187 L262 202 L250 206 L249 189 L239 185 L230 192 L229 212 L220 214 L220 202 L209 195 L200 202 L202 220 L194 227 L186 213 L172 218 L176 239 L170 246 L161 235 L149 240 L148 250 L156 264 L152 270 L137 268 L134 279 L146 291 L151 312 L172 330 L213 347 L234 377 L235 394 L228 413 L215 426 L189 433 L195 440 L244 464 L272 462 L305 440 L312 418 L306 413 L297 418 L297 424 L308 420 L307 429 L286 449 L288 421 L270 403 L356 406 L319 430 L317 437 L373 399 L400 370 L412 336 L420 264 L418 257 L409 308 L400 274 L423 224 L415 181 L415 200 L400 192 L380 195 L341 232 L296 249 L301 252 L322 246 L358 224 L360 260 L386 310 L389 343 L376 332 L365 339 L365 349 L374 357 L381 353 L374 352 L369 341 L374 337 L382 341 L387 363 L379 384 L364 397 L339 403 L276 397 L255 405 L246 421 L250 431 L256 433 L251 418 L262 408 L276 412 L285 427 L282 445 L270 457 L245 460 L200 437 L229 419 L233 436 L244 447 L258 449 L268 444 L274 433 L269 420 L263 421 L269 434 L258 444 L245 442 L234 424 L240 403 L262 388 L365 387 L365 382 L354 382 L354 320 L364 313 L365 301 L337 261 L222 262 L194 300 L193 309 L205 320 L206 332 L209 320 L219 313 L229 320 L244 314 L246 382 L250 319 L267 313 L281 320 L291 313 L305 320 L315 313 L329 320 L339 313 L350 321 L348 383 L339 382 L339 333 L309 332 L306 383 L261 384 L239 397 L233 362 L219 346 L193 329 L183 310 L189 281 L214 258 L310 233 L347 213 L390 160Z M407 143 L411 146 L408 151 L403 148Z M262 144 L259 148 L265 151Z M318 121 L323 124 L320 129 L315 126Z M256 118 L263 121 L260 128 L254 125Z M200 102Z M319 98 L318 106 L322 104Z M377 94 L369 104 L379 112 L387 103Z M256 93 L254 98 L259 99Z M340 97 L337 108 L311 121 L309 137 L287 156 L199 185 L154 215 L125 252 L102 306 L104 267 L123 232 L182 178 L196 175 L208 165 L206 156 L197 170 L189 171 L197 156 L193 142 L182 145 L183 149 L191 146 L193 154 L180 173 L166 171 L154 161 L153 140 L167 120 L200 102 L194 120 L167 140 L166 159 L176 161 L168 150 L182 131 L192 125 L196 136 L198 124 L210 123 L225 133 L228 148 L223 159 L232 164 L254 132 L268 127 L297 138 L313 87 L320 85Z M373 78 L380 79 L397 101 L395 110 L377 125 L370 125 L358 108 L359 93Z M399 76 L404 82 L406 78Z M289 69 L286 74 L290 77 L293 72Z M376 67 L378 75 L373 73Z M381 64 L371 64 L369 76 L356 90 L342 92 L321 82 L318 73 L309 72 L302 104 L288 129 L267 119 L296 105 L291 92 L282 94 L280 103 L265 115 L251 115 L232 98 L229 107 L248 117 L250 127 L234 148 L223 124 L199 118 L211 98 L234 85 L260 82 L275 87 L276 82 L257 77 L236 80 L171 111 L152 131 L147 155 L157 171 L176 178 L158 192 L158 181 L153 181 L150 197 L118 231 L97 273 L93 244 L99 230 L137 196 L142 184 L141 173 L133 163 L121 160 L112 164 L105 174 L111 190 L121 192 L129 184 L124 174 L121 187 L110 181 L111 172 L120 165 L131 167 L138 183 L130 197 L99 223 L99 206 L104 200 L97 197 L97 168 L114 150 L139 150 L137 145 L124 143 L148 126 L120 139 L96 160 L91 172 L95 216 L88 257 L103 352 L111 371 L134 394 L137 366 L157 345 L150 345 L137 357 L129 385 L115 368 L105 341 L107 307 L122 268 L124 296 L132 313 L179 351 L175 363 L149 366 L154 374 L144 396 L155 407 L166 405 L172 396 L161 373 L174 367 L180 373 L180 410 L163 419 L164 423 L202 422 L184 410 L184 373 L190 367 L203 373 L192 394 L198 405 L214 405 L220 393 L209 373 L214 365 L189 363 L180 344 L134 308 L127 270 L140 238 L162 214 L189 195 L294 157 L342 109 L345 116 L339 149 L344 146 L351 111 L366 127 L346 160 L346 171 L352 177 L360 177 L366 169 L358 158 L360 171 L351 170 L353 155 L398 113 L404 132 L399 150 L404 155 L414 152 L406 116 L412 102 L395 92 L383 76Z M339 45 L336 55 L325 60 L334 63 L340 75 L343 65 L354 59 L346 57Z" fill="#172A46" fill-rule="evenodd"/></svg>