<svg xmlns="http://www.w3.org/2000/svg" viewBox="0 0 512 512" role="img" aria-labelledby="title desc"><title id="title">House Of Dev</title><desc id="desc">Local Business Transition, Growth, Value</desc><rect width="512" height="512" rx="96" fill="#F4F0E6"/><g fill="none" stroke="#172A46" stroke-width="18" stroke-linecap="round" stroke-linejoin="round"><path d="M126 264c46-92 117-132 214-122"/><path d="M154 326c71 49 146 50 224-10"/><path d="M164 246l92-74 92 74"/><path d="M192 246v92h128v-92"/><path d="M236 338v-54h40v54"/><path d="M184 262h144"/><path d="M184 262c10 24 32 24 42 0 10 24 32 24 42 0 10 24 32 24 42 0"/><path d="M330 140l36-36m0 0h38m-38 0v38"/><path d="M354 178l48 34"/><path d="M126 310h54"/><path d="M153 286v74"/></g><g fill="#172A46"><circle cx="366" cy="104" r="12"/><circle cx="404" cy="104" r="10"/><circle cx="402" cy="212" r="10"/><circle cx="330" cy="140" r="9"/><path d="M256 54l12 25 28 4-20 20 5 28-25-13-25 13 5-28-20-20 28-4z"/></g></svg>
